<?xml version="1.0"?>
<svg width="432.071" height="445.383" xmlns="http://www.w3.org/2000/svg" xmlns:svg="http://www.w3.org/2000/svg">
 <style>
  <![CDATA[.B{stroke-linejoin:round}.C{stroke-linecap:round}.D{stroke-width:12.465}]]>
 </style>

 <g class="layer">
  <title>Layer 1</title>
  <g fill="none" id="svg_1" stroke="#fff">
   <path d="m403.39,274.23c-50.3,10.38 -53.76,-6.65 -53.76,-6.65c53.12,-78.81 75.32,-178.85 56.16,-203.33c-52.27,-66.79 -142.75,-35.2 -144.26,-34.38l-0.49,0.09c-9.94,-2.07 -21.06,-3.3 -33.56,-3.5c-22.76,-0.37 -40.03,5.97 -53.13,15.9c0,0 -161.41,-66.49 -153.9,83.63c1.6,31.94 45.78,241.66 98.47,178.31c19.26,-23.16 37.87,-42.74 37.87,-42.74c9.24,6.14 20.31,9.27 31.91,8.14l0.9,-0.76c-0.28,2.87 -0.15,5.69 0.36,9.02c-13.58,15.17 -9.59,17.83 -36.73,23.41c-27.46,5.66 -11.32,15.74 -0.79,18.37c12.77,3.19 42.31,7.72 62.26,-20.22l-0.79,3.19c5.32,4.26 9.05,27.71 8.43,48.97s-1.05,35.85 3.14,47.25s8.37,37.05 44.05,29.41c29.81,-6.39 45.25,-22.95 47.4,-50.56c1.53,-19.63 4.98,-16.73 5.19,-34.28l2.77,-8.31c3.19,-26.61 0.51,-35.2 18.87,-31.2l4.47,0.39c13.51,0.61 31.21,-2.17 41.59,-7c22.36,-10.38 35.62,-27.7 13.57,-23.15z" fill="#4cd3a9" id="svg_3"/>
   <g class="D B" id="svg_4">
    <path class="C" d="m215.87,292.48c-1.39,49.52 0.34,99.38 5.19,111.5s15.22,35.69 50.9,28.04c29.8,-6.4 40.65,-18.75 45.36,-46.05c3.46,-20.08 10.14,-75.85 11,-87.28m-155.22,-254.43s-161.52,-66.02 -154.01,84.1c1.6,31.94 45.78,241.67 98.48,178.32c19.25,-23.17 36.67,-41.33 36.67,-41.33m106.11,-233.14c-5.6,1.75 89.85,-34.9 144.09,34.41c19.16,24.49 -3.05,124.52 -56.16,203.33m0,0s3.46,17.04 53.77,6.66c22.04,-4.56 8.77,12.77 -13.58,23.15c-18.35,8.52 -59.47,10.7 -60.15,-1.07c-1.73,-30.35 21.65,-21.13 19.96,-28.74c-1.52,-6.85 -11.98,-13.57 -18.89,-30.34c-6.04,-14.63 -82.8,-126.85 21.29,-110.18c3.81,-0.8 -27.15,-99 -124.56,-100.6c-97.38,-1.6 -94.2,119.76 -94.2,119.76" id="svg_5" stroke="#1a2c4e"/>
    <path d="m188.6,282.33c-13.57,15.17 -9.58,17.83 -36.72,23.42c-27.46,5.66 -11.32,15.73 -0.8,18.37c12.77,3.19 42.31,7.71 62.27,-20.23c6.08,-8.51 -0.04,-22.09 -8.38,-25.55c-4.04,-1.67 -9.43,-3.77 -16.36,3.99l-0.01,0z" id="svg_6" stroke="#1a2c4e"/>
    <path class="C" d="m187.72,282.07c-1.37,-8.92 2.93,-19.53 7.53,-31.94c6.92,-18.63 22.89,-37.26 10.12,-96.34c-9.53,-44.03 -73.4,-9.17 -73.44,-3.2s2.89,30.26 -1.07,58.55c-5.16,36.92 23.49,68.13 56.48,64.94" id="svg_7" stroke="#1a2c4e"/>
    <path d="m172.52,149.7c-0.29,2.04 3.73,7.48 8.97,8.21c5.24,0.73 9.72,-3.53 10,-5.56s-3.73,-4.29 -8.98,-5.02c-5.23,-0.73 -9.72,0.33 -9.99,2.37zm159.42,-4.16c0.28,2.04 -3.73,7.48 -8.98,8.21c-5.23,0.73 -9.71,-3.52 -10,-5.56c-0.28,-2.04 3.74,-4.29 8.98,-5.02s9.72,0.34 10,2.37z" fill="#fff" id="svg_8" stroke="#1a2c4e"/>
    <g class="C" id="svg_9">
     <path d="m350.68,131.43c0.86,16 -3.45,26.89 -3.99,43.92c-0.81,24.74 11.8,53.07 -7.19,81.43" id="svg_10" stroke="#1a2c4e"/>
     <path d="m0,68.23" id="svg_11" stroke="#1a2c4e"/>
    </g>
   </g>
  </g>
 </g>
</svg>